<svg xmlns="http://www.w3.org/2000/svg" viewBox="0 0 720 480" width="720" height="480">
  <rect width="720" height="480" fill="#0f172a"/>
  <!-- Sidebar -->
  <rect width="180" height="480" fill="#1e293b"/>
  <rect x="20" y="28" width="140" height="36" rx="8" fill="#4f46e5"/>
  <text x="90" y="51" font-family="Inter,sans-serif" font-size="13" font-weight="700" fill="white" text-anchor="middle">Dashboard</text>
  <rect x="20" y="76" width="140" height="32" rx="6" fill="transparent"/>
  <text x="36" y="96" font-family="Inter,sans-serif" font-size="12" fill="#64748b">Analytics</text>
  <rect x="20" y="116" width="140" height="32" rx="6" fill="transparent"/>
  <text x="36" y="136" font-family="Inter,sans-serif" font-size="12" fill="#64748b">Reports</text>
  <rect x="20" y="156" width="140" height="32" rx="6" fill="transparent"/>
  <text x="36" y="176" font-family="Inter,sans-serif" font-size="12" fill="#64748b">Users</text>
  <rect x="20" y="196" width="140" height="32" rx="6" fill="transparent"/>
  <text x="36" y="216" font-family="Inter,sans-serif" font-size="12" fill="#64748b">Settings</text>
  <!-- Stat cards row -->
  <rect x="200" y="24" width="150" height="80" rx="10" fill="#1e293b" stroke="#334155" stroke-width="1"/>
  <text x="216" y="50" font-family="Inter,sans-serif" font-size="11" fill="#94a3b8">Total Revenue</text>
  <text x="216" y="78" font-family="Inter,sans-serif" font-size="22" font-weight="700" fill="white">$84,254</text>
  <text x="216" y="96" font-family="Inter,sans-serif" font-size="10" fill="#22c55e">▲ 12.5%</text>
  <rect x="364" y="24" width="150" height="80" rx="10" fill="#1e293b" stroke="#334155" stroke-width="1"/>
  <text x="380" y="50" font-family="Inter,sans-serif" font-size="11" fill="#94a3b8">Active Users</text>
  <text x="380" y="78" font-family="Inter,sans-serif" font-size="22" font-weight="700" fill="white">24,891</text>
  <text x="380" y="96" font-family="Inter,sans-serif" font-size="10" fill="#22c55e">▲ 8.2%</text>
  <rect x="528" y="24" width="168" height="80" rx="10" fill="#1e293b" stroke="#334155" stroke-width="1"/>
  <text x="544" y="50" font-family="Inter,sans-serif" font-size="11" fill="#94a3b8">Conversion</text>
  <text x="544" y="78" font-family="Inter,sans-serif" font-size="22" font-weight="700" fill="white">3.24%</text>
  <text x="544" y="96" font-family="Inter,sans-serif" font-size="10" fill="#ef4444">▼ 1.1%</text>
  <!-- Main chart -->
  <rect x="200" y="120" width="360" height="210" rx="10" fill="#1e293b" stroke="#334155" stroke-width="1"/>
  <text x="220" y="148" font-family="Inter,sans-serif" font-size="13" font-weight="600" fill="white">Revenue Overview</text>
  <!-- Chart area fill -->
  <defs>
    <linearGradient id="chartGrad" x1="0" y1="0" x2="0" y2="1">
      <stop offset="0%" stop-color="#4f46e5" stop-opacity="0.4"/>
      <stop offset="100%" stop-color="#4f46e5" stop-opacity="0"/>
    </linearGradient>
  </defs>
  <polygon points="220,300 252,270 284,282 316,250 348,258 380,232 412,240 444,218 476,226 508,208 540,200 540,310 220,310" fill="url(#chartGrad)"/>
  <polyline points="220,300 252,270 284,282 316,250 348,258 380,232 412,240 444,218 476,226 508,208 540,200" fill="none" stroke="#6366f1" stroke-width="2.5" stroke-linecap="round" stroke-linejoin="round"/>
  <!-- Grid lines -->
  <line x1="220" y1="290" x2="540" y2="290" stroke="#334155" stroke-width="0.5"/>
  <line x1="220" y1="270" x2="540" y2="270" stroke="#334155" stroke-width="0.5"/>
  <line x1="220" y1="250" x2="540" y2="250" stroke="#334155" stroke-width="0.5"/>
  <line x1="220" y1="230" x2="540" y2="230" stroke="#334155" stroke-width="0.5"/>
  <!-- Sidebar right -->
  <rect x="576" y="120" width="120" height="100" rx="10" fill="#1e293b" stroke="#334155" stroke-width="1"/>
  <text x="592" y="146" font-family="Inter,sans-serif" font-size="11" font-weight="600" fill="white">Top Sources</text>
  <rect x="592" y="158" width="70" height="6" rx="3" fill="#4f46e5"/>
  <text x="668" y="164" font-family="Inter,sans-serif" font-size="9" fill="#94a3b8">62%</text>
  <rect x="592" y="172" width="50" height="6" rx="3" fill="#06b6d4"/>
  <text x="648" y="178" font-family="Inter,sans-serif" font-size="9" fill="#94a3b8">44%</text>
  <rect x="592" y="186" width="36" height="6" rx="3" fill="#22c55e"/>
  <text x="634" y="192" font-family="Inter,sans-serif" font-size="9" fill="#94a3b8">31%</text>
  <rect x="592" y="200" width="24" height="6" rx="3" fill="#f59e0b"/>
  <text x="622" y="206" font-family="Inter,sans-serif" font-size="9" fill="#94a3b8">21%</text>
  <!-- Recent transactions -->
  <rect x="200" y="344" width="494" height="120" rx="10" fill="#1e293b" stroke="#334155" stroke-width="1"/>
  <text x="220" y="368" font-family="Inter,sans-serif" font-size="13" font-weight="600" fill="white">Recent Transactions</text>
  <line x1="220" y1="378" x2="674" y2="378" stroke="#334155" stroke-width="0.5"/>
  <text x="220" y="398" font-family="Inter,sans-serif" font-size="11" fill="#94a3b8">User</text>
  <text x="380" y="398" font-family="Inter,sans-serif" font-size="11" fill="#94a3b8">Amount</text>
  <text x="500" y="398" font-family="Inter,sans-serif" font-size="11" fill="#94a3b8">Status</text>
  <text x="220" y="422" font-family="Inter,sans-serif" font-size="11" fill="white">James Wilson</text>
  <text x="380" y="422" font-family="Inter,sans-serif" font-size="11" fill="white">$248.00</text>
  <rect x="495" y="410" width="52" height="18" rx="9" fill="#dcfce7"/>
  <text x="499" y="422" font-family="Inter,sans-serif" font-size="9" font-weight="600" fill="#16a34a">Completed</text>
  <text x="220" y="446" font-family="Inter,sans-serif" font-size="11" fill="white">Sarah Johnson</text>
  <text x="380" y="446" font-family="Inter,sans-serif" font-size="11" fill="white">$125.50</text>
  <rect x="495" y="434" width="50" height="18" rx="9" fill="#fef3c7"/>
  <text x="499" y="446" font-family="Inter,sans-serif" font-size="9" font-weight="600" fill="#d97706">Pending</text>
</svg>
